<svg width="85" height="66" viewBox="0 0 85 66" fill="none" xmlns="http://www.w3.org/2000/svg">
<path d="M84.8566 27.1074V29.4645C84.8566 31.4173 83.2736 33.0002 81.3209 33.0002H80.1423L76.2954 59.9286C75.7977 63.4123 72.8142 66 69.2951 66H15.5615C12.0424 66 9.05888 63.4123 8.56109 59.9286L4.71426 33.0002H3.53569C1.58296 33.0002 0 31.4173 0 29.4645V27.1074C0 25.1547 1.58296 23.5717 3.53569 23.5717H13.4564L29.1873 1.94195C30.7187 -0.16355 33.6669 -0.629231 35.7727 0.902166C37.8783 2.43356 38.3438 5.38189 36.8124 7.48754L25.1148 23.5717H59.7419L48.0442 7.48739C46.5128 5.38189 46.9784 2.43342 49.0841 0.902019C51.1895 -0.629378 54.1381 -0.163845 55.6695 1.94181L71.4002 23.5717H81.3209C83.2736 23.5717 84.8566 25.1547 84.8566 27.1074ZM45.964 53.0358V36.5359C45.964 34.5832 44.381 33.0002 42.4283 33.0002C40.4756 33.0002 38.8926 34.5832 38.8926 36.5359V53.0358C38.8926 54.9885 40.4756 56.5715 42.4283 56.5715C44.381 56.5715 45.964 54.9885 45.964 53.0358ZM62.4639 53.0358V36.5359C62.4639 34.5832 60.8809 33.0002 58.9282 33.0002C56.9755 33.0002 55.3925 34.5832 55.3925 36.5359V53.0358C55.3925 54.9885 56.9755 56.5715 58.9282 56.5715C60.8809 56.5715 62.4639 54.9885 62.4639 53.0358ZM29.4641 53.0358V36.5359C29.4641 34.5832 27.8811 33.0002 25.9284 33.0002C23.9757 33.0002 22.3927 34.5832 22.3927 36.5359V53.0358C22.3927 54.9885 23.9757 56.5715 25.9284 56.5715C27.8811 56.5715 29.4641 54.9885 29.4641 53.0358Z" fill="#2C2C2C"/>
</svg>
