<svg width="102" height="75" viewBox="0 0 102 75" fill="none" xmlns="http://www.w3.org/2000/svg">
<path d="M67.1875 37.1936C64.5204 37.1936 62.0112 35.6995 60.654 33.3089L50.5067 15.6116L40.3751 33.3089C39.0022 35.7161 36.4929 37.2102 33.8259 37.2102C33.1157 37.2102 32.4056 37.1106 31.727 36.8948L10.1067 30.387V59.9378C10.1067 62.3782 11.6848 64.5032 13.9257 65.0843L48.0448 74.0657C49.6545 74.4807 51.3431 74.4807 52.937 74.0657L87.0876 65.0843C89.3286 64.4866 90.9067 62.3616 90.9067 59.9378V30.387L69.2864 36.8782C68.6078 37.094 67.8976 37.1936 67.1875 37.1936ZM100.738 18.5667L92.6111 1.50028C92.1218 0.47098 91.0645 -0.126676 89.9756 0.022738L50.5067 5.31864L64.9781 30.5696C65.5778 31.6155 66.7772 32.1136 67.8976 31.7815L99.1287 22.4016C100.691 21.9202 101.449 20.094 100.738 18.5667ZM8.40231 1.50028L0.274961 18.5667C-0.450977 20.094 0.322305 21.9202 1.86887 22.385L33.1 31.7649C34.2204 32.097 35.4198 31.5989 36.0195 30.553L50.5067 5.31864L11.022 0.022738C9.93309 -0.110075 8.89152 0.47098 8.40231 1.50028Z" fill="black"/>
</svg>
