<svg width="84" height="67" viewBox="0 0 84 67" fill="none" xmlns="http://www.w3.org/2000/svg">
<path d="M64.0325 25.1243H44.0889V32.453C44.0889 37.6486 39.8509 41.8757 34.6419 41.8757C29.433 41.8757 25.1949 37.6486 25.1949 32.453V16.5392L16.6795 21.6431C14.1472 23.1481 12.599 25.8833 12.599 28.8148V35.005L2.10232 41.0512C0.0948382 42.2029 -0.600565 44.7679 0.567187 46.7703L11.0638 64.9089C12.2185 66.9112 14.7901 67.5917 16.7976 66.4401L30.3645 58.6271H48.2876C52.9192 58.6271 56.6849 54.8711 56.6849 50.2514H58.7842C61.1066 50.2514 62.9829 48.38 62.9829 46.0636V37.6879H64.0325C65.7776 37.6879 67.1815 36.2875 67.1815 34.547V28.2652C67.1815 26.5246 65.7776 25.1243 64.0325 25.1243ZM83.412 20.2297L72.9153 2.0911C71.7607 0.0887783 69.189 -0.591748 67.1815 0.559912L53.6146 8.37288H40.2051C38.6307 8.37288 37.0955 8.81784 35.7572 9.64232L31.3617 12.3775C30.1284 13.1366 29.3936 14.4845 29.3936 15.9241V32.453C29.3936 35.3453 31.7422 37.6879 34.6419 37.6879C37.5416 37.6879 39.8903 35.3453 39.8903 32.453V20.9364H64.0325C68.0869 20.9364 71.3802 24.2213 71.3802 28.2652V31.995L81.8768 25.9488C83.8843 24.784 84.5666 22.2321 83.412 20.2297V20.2297Z" fill="black"/>
</svg>
