<svg width="86" height="58" viewBox="0 0 86 58" fill="none" xmlns="http://www.w3.org/2000/svg">
<path d="M74.4945 9.79951L74.2503 10.1794L74.4945 9.79951C65.0802 3.74759 54.1879 0.548387 42.996 0.548387C31.8041 0.548387 20.9117 3.74759 11.4974 9.79951L11.7416 10.1794L11.4974 9.79951L10.2287 10.6151H9.85902C4.7248 10.6151 0.548387 14.7913 0.548387 19.9253C0.548387 24.7682 4.26402 28.7583 8.99457 29.1957C10.95 45.098 24.5376 57.4516 40.9603 57.4516H45.032C61.4547 57.4516 75.0423 45.098 76.9977 29.1957C81.7278 28.7582 85.4432 24.7682 85.4432 19.9253C85.4432 14.7913 81.2668 10.6151 76.1326 10.6151H75.7633L74.4945 9.79951ZM72.2319 13.3192L72.4762 12.9393L72.232 13.3192L73.0569 13.8495V25.2422C73.0569 40.695 60.4844 53.2675 45.0316 53.2675H40.96C25.5072 53.2675 12.9347 40.695 12.9347 25.2422V13.8496L13.7597 13.3192C13.7597 13.3192 13.7597 13.3192 13.7597 13.3192C31.5194 1.90172 54.4719 1.90172 72.2319 13.3192ZM4.73222 19.9253C4.73222 17.4802 6.45491 15.4291 8.75056 14.9213V24.9294C6.45497 24.4218 4.73222 22.3705 4.73222 19.9253ZM81.2591 19.9253C81.2591 22.3705 79.5365 24.4216 77.2411 24.9294V14.9215C79.5365 15.4293 81.2591 17.4802 81.2591 19.9253Z" fill="#2C2C2C" stroke="#2C2C2C" stroke-width="0.903226"/>
<path d="M21.8507 20.8499L21.8507 20.8499C20.8788 21.4748 20.5974 22.7691 21.2221 23.7409L21.2221 23.741C21.8469 24.7128 23.1414 24.9946 24.1132 24.3696C35.5835 16.9957 50.4076 16.9957 61.8781 24.3696L61.8782 24.3696C62.2276 24.5941 62.62 24.702 63.0077 24.702C63.6944 24.702 64.3692 24.3633 64.7692 23.7409C65.3939 22.7691 65.1127 21.4749 64.1406 20.8499L63.8964 21.2298L64.1406 20.8499C57.8208 16.7874 50.5087 14.6397 42.9957 14.6397C35.4827 14.6397 28.1705 16.7872 21.8507 20.8499Z" fill="#2C2C2C" stroke="#2C2C2C" stroke-width="0.903226"/>
<path d="M27.1369 30.4691L27.1369 30.4691C36.7711 24.2755 49.2211 24.2755 58.8554 30.4691L58.6112 30.849L58.8554 30.4691C59.8273 31.094 60.1088 32.3883 59.4838 33.3602C59.0837 33.9826 58.409 34.3212 57.7223 34.3212C57.3346 34.3212 56.9422 34.2133 56.5929 33.9888L56.5928 33.9888C48.3335 28.6789 37.6586 28.6789 29.3993 33.9888C28.4277 34.6135 27.1329 34.3321 26.5082 33.3601L27.1369 30.4691ZM27.1369 30.4691C26.165 31.0939 25.8835 32.3883 26.5082 33.3601L27.1369 30.4691Z" fill="#2C2C2C" stroke="#2C2C2C" stroke-width="0.903226"/>
</svg>
